<svg width="140" height="29" xmlns="http://www.w3.org/2000/svg"><path d="M65.055 28.994c2.718 0 4.887-1.134 6.507-3.402v3.132h6.704V7.148h-6.704V9.97c-1.49-2.036-3.626-3.054-6.409-3.054s-5.142 1.037-7.075 3.112c-1.934 2.076-2.901 4.724-2.901 7.946 0 3.223.967 5.865 2.9 7.927 1.934 2.062 4.26 3.093 6.978 3.093zm1.725-5.722c-1.254 0-2.365-.458-3.332-1.373-.967-.915-1.45-2.223-1.45-3.925 0-1.7.483-3.016 1.45-3.944.967-.928 2.078-1.392 3.332-1.392s2.365.458 3.332 1.373c.967.915 1.45 2.223 1.45 3.925 0 1.701-.483 3.016-1.45 3.944-.967.928-2.078 1.392-3.332 1.392zm24.069 5.452V.11h-6.703v28.614h6.703zm15.17.27c2.587 0 4.822-.663 6.703-1.99 1.882-1.328 3.136-3.075 3.764-5.24h-7.252c-.314.386-.569.664-.765.831-.196.168-.503.335-.921.503-.418.167-1.052.251-1.901.251-.85 0-1.64-.303-2.372-.909-.732-.605-1.163-1.385-1.293-2.339h15.052c.105-.644.157-1.34.157-2.088 0-3.48-1.058-6.2-3.175-8.159-2.117-1.959-4.782-2.938-7.997-2.938-3.214 0-5.834.992-7.86 2.977-2.025 1.985-3.037 4.653-3.037 8.004s1.019 6.039 3.057 8.062c2.039 2.024 4.652 3.035 7.84 3.035zm4.195-13.03h-8.193c.183-1.006.64-1.824 1.372-2.456.732-.631 1.633-.947 2.705-.947 1.071 0 1.999.316 2.783.947.784.632 1.228 1.45 1.333 2.456zm15.13 12.76l3.529-5.607 3.567 5.607h7.526l-7.056-11.136 7.056-10.44h-6.624l-3.528 5.606-3.568-5.606h-7.526l7.095 11.136-7.095 10.44h6.625zM0 28.724h9.706L17.92 10.49 13.468 0zM40.32 0l-.291.621L40.32 0l13.44 28.724h-9.706L35.503 10.33l-8.575 18.394-4.528-10.42L30.688 0z" fill="#060606"/></svg>